<svg xmlns="http://www.w3.org/2000/svg" xmlns:xlink="http://www.w3.org/1999/xlink" viewBox="0,0,256,256" width="48px" height="48px"><g fill="#c4c4c4" fill-rule="nonzero" stroke="none" stroke-width="1" stroke-linecap="butt" stroke-linejoin="miter" stroke-miterlimit="10" stroke-dasharray="" stroke-dashoffset="0" font-family="none" font-weight="none" font-size="none" text-anchor="none" style="mix-blend-mode: normal"><path d="M0,256v-256h256v256z" id="bgRectangle"></path></g><g fill="#000000" fill-rule="nonzero" stroke="none" stroke-width="1" stroke-linecap="butt" stroke-linejoin="miter" stroke-miterlimit="10" stroke-dasharray="" stroke-dashoffset="0" font-family="none" font-weight="none" font-size="none" text-anchor="none" style="mix-blend-mode: normal"><g transform="scale(5.33333,5.33333)"><path d="M25.88086,0.57813l-5.05664,5.05664l-3.25781,-1.63672l-4.91992,9.81445l-10.22461,10.22461l2.01367,2.01563l-1.83398,2.46875l1.39648,1.05859l-3,4.41016l1.13281,0.79492l-1.13281,2.25977l15.20117,7.61914l3.17578,2.23047c0.06277,0.04424 0.13454,0.07934 0.19727,0.12109c-5.81436,0.04552 -15.57422,0.23597 -15.57422,0.48047c0,0.27493 12.7049,0.49128 17.7832,0.49609c0.04187,0.00127 0.08367,0.00346 0.125,0.00195c0.02356,0.00001 0.06859,0 0.0918,0c6.336,0 23,-0.22005 23,-0.49805c0,-0.26198 -14.43235,-0.46559 -21.4707,-0.49023l2.56055,-2.55664l0.00195,-0.00391l20.4082,-20.4082c0.936,-0.936 0.48206,-2.36169 -0.71094,-3.55469zM25.88086,1.99219l19.19727,19.19727l-22.10156,22.10352c-0.2,-0.279 -0.42334,-0.53953 -0.65234,-0.76953l-18.48633,-18.48633zM25.88086,4.81641l-4.94922,4.94922l8.48633,8.48438l4.94727,-4.94727zM18.98633,12.12695c-0.256,0 -0.51348,0.09942 -0.70898,0.29492l-10.78125,10.7793c-0.391,0.391 -0.391,1.02501 0,1.41602c0.39,0.39 1.02406,0.39 1.41406,0l10.7832,-10.78125c0.391,-0.391 0.391,-1.02306 0,-1.41406c-0.1955,-0.1955 -0.45103,-0.29492 -0.70703,-0.29492zM35.77148,14.93164c-0.128,0 -0.25552,0.04898 -0.35352,0.14648l-4.23242,4.23242c-0.195,0.196 -0.195,0.51298 0,0.70898c0.196,0.195 0.51103,0.195 0.70703,0l4.23242,-4.23437c0.195,-0.196 0.195,-0.51103 0,-0.70703c-0.098,-0.0975 -0.22552,-0.14648 -0.35352,-0.14648zM21.88281,15.13672c-0.192,0 -0.38525,0.07225 -0.53125,0.21875l-11.07422,11.07617c-0.293,0.292 -0.293,0.76659 0,1.05859c0.292,0.294 0.76855,0.294 1.06055,0l11.07422,-11.07422c0.293,-0.292 0.293,-0.76855 0,-1.06055c-0.146,-0.1465 -0.3373,-0.21875 -0.5293,-0.21875zM37.90039,17.04297c-0.128,0 -0.25552,0.04898 -0.35352,0.14648l-4.23242,4.23242c-0.195,0.196 -0.195,0.51298 0,0.70898c0.196,0.195 0.51299,0.195 0.70898,0l4.23242,-4.23242c0.195,-0.196 0.195,-0.51299 0,-0.70898c-0.098,-0.0975 -0.22747,-0.14648 -0.35547,-0.14648zM24.45703,17.76172c-0.128,0 -0.25551,0.04703 -0.35352,0.14453l-4.23437,4.23242c-0.195,0.196 -0.195,0.51298 0,0.70898c0.196,0.195 0.51298,0.195 0.70898,0l4.23242,-4.23242c0.195,-0.196 0.195,-0.51298 0,-0.70898c-0.098,-0.0975 -0.22552,-0.14453 -0.35352,-0.14453zM40.01172,19.17578c-0.128,0 -0.25552,0.04898 -0.35352,0.14648l-4.23242,4.23242c-0.195,0.196 -0.195,0.51103 0,0.70703c0.196,0.195 0.51299,0.195 0.70898,0l4.23047,-4.23242c0.195,-0.196 0.195,-0.51103 0,-0.70703c-0.098,-0.0975 -0.22552,-0.14648 -0.35352,-0.14648zM26.58789,19.87305c-0.128,0 -0.25552,0.04898 -0.35352,0.14648l-4.23242,4.23242c-0.195,0.196 -0.195,0.51103 0,0.70703c0.196,0.195 0.51103,0.195 0.70703,0l4.23242,-4.23242c0.195,-0.196 0.195,-0.51103 0,-0.70703c-0.098,-0.0975 -0.22552,-0.14648 -0.35352,-0.14648zM42.14453,21.28711c-0.128,0 -0.25747,0.04898 -0.35547,0.14648l-4.23047,4.23047c-0.195,0.196 -0.195,0.51299 0,0.70898c0.196,0.194 0.51103,0.194 0.70703,0l4.23242,-4.23242c0.195,-0.196 0.195,-0.51103 0,-0.70703c-0.098,-0.0975 -0.22552,-0.14648 -0.35352,-0.14648zM28.69922,22.00391c-0.128,0 -0.25552,0.04898 -0.35352,0.14648l-4.23242,4.23242c-0.195,0.196 -0.195,0.51103 0,0.70703c0.196,0.195 0.51103,0.195 0.70703,0l4.23438,-4.23242c0.195,-0.196 0.195,-0.51103 0,-0.70703c-0.098,-0.0975 -0.22747,-0.14648 -0.35547,-0.14648zM30.83008,24.11523c-0.128,0 -0.25552,0.04898 -0.35352,0.14648l-4.23437,4.23242c-0.195,0.196 -0.195,0.51103 0,0.70703c0.196,0.195 0.51298,0.195 0.70898,0l4.23242,-4.23047c0.195,-0.196 0.195,-0.51298 0,-0.70898c-0.098,-0.0975 -0.22552,-0.14648 -0.35352,-0.14648zM17.38477,24.83203c-0.128,0 -0.25552,0.04898 -0.35352,0.14648l-4.23242,4.23242c-0.195,0.196 -0.195,0.51103 0,0.70703c0.196,0.195 0.51299,0.195 0.70898,0l4.23047,-4.23242c0.195,-0.196 0.195,-0.51103 0,-0.70703c-0.098,-0.0975 -0.22552,-0.14648 -0.35352,-0.14648zM32.94141,26.24609c-0.128,0 -0.25552,0.04898 -0.35352,0.14648l-4.23242,4.23438c-0.195,0.196 -0.195,0.51103 0,0.70703c0.196,0.195 0.51103,0.195 0.70703,0l4.23242,-4.23242c0.195,-0.196 0.195,-0.51298 0,-0.70898c-0.098,-0.0975 -0.22552,-0.14648 -0.35352,-0.14648zM19.51563,26.94336c-0.128,0 -0.25552,0.04898 -0.35352,0.14648l-4.23242,4.23242c-0.195,0.196 -0.195,0.51103 0,0.70703c0.196,0.195 0.51298,0.195 0.70898,0l4.23047,-4.23047c0.195,-0.196 0.195,-0.51298 0,-0.70898c-0.098,-0.0975 -0.22552,-0.14648 -0.35352,-0.14648zM4.74023,27.3418l6.83594,5.85156l3.54102,3.54102l-11.10742,-8.4082zM35.07227,28.35938c-0.128,0 -0.25552,0.04898 -0.35352,0.14648l-4.23242,4.23047c-0.195,0.196 -0.195,0.51299 0,0.70898c0.196,0.194 0.51103,0.194 0.70703,0l4.23438,-4.23242c0.195,-0.196 0.195,-0.51103 0,-0.70703c-0.098,-0.0975 -0.22747,-0.14648 -0.35547,-0.14648zM21.62891,29.07422c-0.128,0 -0.25747,0.04898 -0.35547,0.14648l-4.23047,4.23242c-0.195,0.196 -0.195,0.51103 0,0.70703c0.196,0.194 0.51103,0.194 0.70703,0l4.23242,-4.23047c0.195,-0.196 0.195,-0.51299 0,-0.70898c-0.098,-0.0975 -0.22552,-0.14648 -0.35352,-0.14648zM4.29492,30.93164c6.484,4.535 17.57739,11.92928 18.52539,14.48828c0.044,0.506 -0.10614,0.97723 -0.49414,1.36523c-0.228,0.228 -0.60722,0.34964 -1.32422,-0.06836c-0.415,-0.235 -0.72983,-0.42153 -1.04883,-0.64453l-17.56445,-12.33594zM23.75977,31.1875c-0.128,0 -0.25747,0.04703 -0.35547,0.14453l-4.23047,4.23242c-0.195,0.196 -0.195,0.51299 0,0.70898c0.196,0.194 0.51103,0.194 0.70703,0l4.23242,-4.23242c0.195,-0.196 0.195,-0.51299 0,-0.70898c-0.098,-0.0975 -0.22552,-0.14453 -0.35352,-0.14453zM25.86914,33.31836c-0.128,0 -0.25552,0.04899 -0.35352,0.14648l-4.23242,4.23242c-0.195,0.196 -0.195,0.51103 0,0.70703c0.196,0.194 0.51103,0.194 0.70703,0l4.23438,-4.23047c0.195,-0.196 0.195,-0.51298 0,-0.70898c-0.098,-0.0975 -0.22747,-0.14648 -0.35547,-0.14648zM28.00195,35.42969c-0.128,0 -0.25747,0.04703 -0.35547,0.14453l-4.23242,4.23242c-0.195,0.196 -0.195,0.51298 0,0.70898c0.196,0.195 0.51299,0.195 0.70898,0l4.23242,-4.23242c0.195,-0.196 0.195,-0.51298 0,-0.70898c-0.098,-0.0975 -0.22552,-0.14453 -0.35352,-0.14453z"></path></g></g></svg>